<svg xmlns="http://www.w3.org/2000/svg" xmlns:xlink="http://www.w3.org/1999/xlink" width="940" zoomAndPan="magnify" viewBox="0 0 705 591.000005" height="788" preserveAspectRatio="xMidYMid meet" version="1.2"><defs><clipPath id="a83b635175"><path d="M 504 270 L 527.371094 270 L 527.371094 292 L 504 292 Z M 504 270 "/></clipPath><clipPath id="4c7838cbc8"><path d="M 177.710938 270 L 200 270 L 200 293 L 177.710938 293 Z M 177.710938 270 "/></clipPath></defs><g id="a60199e619"><path style=" stroke:none;fill-rule:nonzero;fill:#ffffff;fill-opacity:1;" d="M 500.222656 290.839844 C 498.285156 297.066406 493.929688 301.25 488.445312 304.304688 C 477.070312 310.636719 464.734375 311.703125 452.027344 310.714844 C 437.117188 309.558594 422.507812 310.726562 408.5625 316.710938 C 401.199219 319.871094 393.742188 325.925781 390.429688 331.835938 C 393.550781 331.304688 396.40625 330.847656 399.257812 330.328125 C 406.285156 329.050781 412.734375 330.9375 418.902344 334.058594 C 423.035156 336.148438 427.105469 338.394531 431.085938 340.761719 C 442.644531 347.628906 454.738281 349.90625 467.988281 346.375 C 475.421875 344.394531 483.316406 344.664062 490.839844 342.59375 C 488.816406 344.953125 486.234375 346.441406 483.460938 347 C 474.066406 348.886719 464.714844 350.945312 455.035156 351.25 C 443.832031 351.605469 433.492188 348.800781 423.453125 344.253906 C 421.199219 343.234375 418.925781 342.246094 416.609375 341.367188 C 401.761719 335.738281 383.511719 341.769531 374.863281 355.140625 C 368.109375 365.574219 365.949219 376.878906 368.074219 389.144531 C 370.613281 403.804688 372.894531 418.515625 373.710938 433.402344 C 373.8125 435.234375 374.640625 436.699219 375.640625 438.109375 C 380.308594 444.699219 386.550781 449.398438 393.679688 453.007812 C 403.898438 458.179688 414.96875 460.484375 426.09375 462.601562 C 428.917969 463.136719 431.75 463.640625 434.546875 464.316406 C 415.5 464.914062 396.867188 463.183594 379.46875 454.503906 C 376.714844 453.128906 373.890625 452.449219 370.71875 453.246094 C 368.230469 453.867188 368.25 454.707031 369.789062 456.371094 C 374.523438 461.496094 380.078125 465.558594 386.085938 469.042969 C 387.285156 469.742188 388.496094 470.417969 389.882812 471.207031 C 388.703125 471.984375 387.765625 471.511719 386.820312 471.273438 C 377.101562 468.839844 368.210938 464.691406 361.472656 457.164062 C 355.71875 450.734375 347.960938 451.902344 342.871094 457.207031 C 335.035156 465.375 325.003906 469.65625 313.972656 471.859375 C 321.921875 466.914062 329.882812 462.023438 336.101562 454.488281 C 333.695312 452.976562 331.292969 452.40625 328.710938 453.222656 C 326.558594 453.902344 324.398438 454.644531 322.375 455.628906 C 305.753906 463.734375 287.9375 464.539062 269.953125 464.40625 C 279.5 462.636719 289.070312 460.996094 298.34375 458.042969 C 304.53125 456.078125 310.476562 453.554688 315.996094 450.097656 C 325.226562 444.308594 331.570312 436.996094 331.601562 425.148438 C 331.628906 413.6875 334.410156 402.476562 336.519531 391.25 C 339.390625 376.007812 336.746094 362.132812 326.484375 350.40625 C 317.085938 339.664062 299.761719 336.507812 286.792969 342.316406 C 279.515625 345.574219 272.335938 349.164062 264.359375 350.398438 C 252.921875 352.164062 241.566406 351.367188 230.285156 348.871094 C 224.449219 347.578125 218.332031 347.148438 213.367188 342.621094 C 214.714844 342.113281 215.800781 342.660156 216.820312 342.921875 C 226.558594 345.402344 236.597656 346.085938 246.460938 347.804688 C 255.792969 349.433594 264.308594 346.238281 272.394531 341.8125 C 277.308594 339.117188 282.140625 336.261719 287.128906 333.714844 C 294.925781 329.726562 303.074219 328.679688 311.566406 331.332031 C 312.753906 331.703125 313.9375 332.308594 315.53125 332.019531 C 310.109375 323.148438 302.097656 318.09375 292.675781 314.824219 C 280.101562 310.457031 267.148438 309.8125 254.039062 310.78125 C 241.136719 311.734375 228.625 310.628906 216.953125 304.4375 C 211.078125 301.316406 206.441406 297.101562 204.34375 290.492188 C 205.886719 291.914062 207.394531 293.375 208.984375 294.75 C 216.867188 301.585938 226.28125 304.054688 236.464844 304.464844 C 244.0625 304.769531 251.496094 303.5625 259 302.667969 C 273.988281 300.882812 288.941406 301.277344 303.636719 305.152344 C 306.089844 305.800781 306.746094 305.421875 306.097656 302.910156 C 299.152344 276.023438 283.25 257.6875 255.890625 250.316406 C 248.960938 248.449219 241.757812 248.8125 234.691406 248.011719 C 226.933594 247.132812 219.394531 245.417969 212.847656 240.816406 C 211.546875 239.902344 210.117188 239.058594 209.355469 237.277344 C 211.234375 237.496094 212.660156 238.484375 214.140625 239.246094 C 221.371094 242.964844 229.03125 244.800781 237.15625 244.902344 C 246.21875 245.019531 255.296875 245.132812 264.136719 247.519531 C 275.441406 250.570312 285.042969 256.59375 293.480469 264.585938 C 303.683594 274.246094 310.882812 285.957031 316.640625 298.632812 C 322.339844 311.179688 328.859375 323.167969 339.03125 332.773438 C 339.660156 333.367188 340.25 334.003906 340.882812 334.589844 C 341.011719 334.710938 341.265625 334.699219 341.71875 334.808594 C 342.519531 329.308594 341.542969 323.886719 341.132812 318.511719 C 339.914062 302.636719 336.589844 287.234375 330.578125 272.390625 C 323.777344 255.613281 312.457031 242.75 297.9375 232.304688 C 284.550781 222.679688 269.613281 215.921875 255.0625 208.429688 C 252.890625 207.3125 250.851562 205.945312 248.867188 204.347656 C 251.910156 203.890625 254.617188 205.089844 257.386719 205.824219 C 260.296875 206.597656 263.175781 207.492188 266.042969 208.421875 C 268.90625 209.347656 271.761719 210.347656 274.59375 211.382812 C 277.398438 212.414062 280.175781 213.53125 283.515625 214.824219 C 278.984375 201.398438 276.035156 188.375 281.035156 174.972656 C 281.910156 180.140625 281.652344 185.386719 282.757812 190.546875 C 286.042969 205.894531 293.511719 219 305.859375 228.410156 C 322.722656 241.261719 335.953125 256.753906 345.207031 275.746094 C 345.34375 276.019531 345.589844 276.238281 346.222656 277.039062 C 346.492188 271.933594 346.894531 267.382812 346.9375 262.832031 C 347.097656 247.003906 344.65625 231.6875 337.539062 217.367188 C 333.308594 208.859375 329.296875 200.277344 327.417969 190.871094 C 325.382812 180.667969 321.773438 171.003906 317.398438 161.601562 C 316.511719 159.691406 315.59375 157.796875 314.535156 155.5625 C 316.726562 156.042969 317.6875 157.378906 318.757812 158.5 C 325.746094 165.8125 329.691406 174.800781 332.070312 184.398438 C 334.527344 194.308594 339.539062 202.699219 345.773438 210.53125 C 348.125 213.488281 350.636719 216.328125 352.855469 219.378906 C 354.132812 221.128906 354.636719 220.691406 355.789062 219.253906 C 364.957031 207.832031 371.847656 195.421875 374.453125 180.730469 C 375.824219 173.023438 379.441406 166.070312 384.597656 160.035156 C 386.050781 158.332031 387.59375 156.746094 389.761719 155.269531 C 389.425781 157.609375 388.273438 159.199219 387.476562 160.910156 C 383.171875 170.136719 380.019531 179.71875 378.300781 189.769531 C 376.851562 198.257812 373.75 206.085938 369.433594 213.566406 C 361.742188 226.90625 357.816406 241.339844 357.945312 256.8125 C 358.003906 263.464844 357.957031 270.117188 358.699219 276.945312 C 359.410156 275.703125 360.152344 274.480469 360.828125 273.21875 C 369.980469 256.132812 382.164062 241.714844 397.601562 229.863281 C 411.253906 219.378906 419.941406 205.445312 423.242188 188.445312 C 424.117188 183.945312 424.101562 179.269531 424.507812 174.566406 C 426.972656 178.066406 427.449219 181.917969 426.839844 194.28125 C 426.503906 201.140625 424.054688 207.488281 421.53125 214.28125 C 433.097656 210.542969 443.917969 205.757812 456.269531 203.65625 C 454.488281 206.167969 452.363281 206.929688 450.421875 207.878906 C 438.605469 213.632812 426.578125 219.027344 415.578125 226.296875 C 400.679688 236.140625 387.035156 247.332031 378.496094 263.515625 C 371.367188 277.027344 367.589844 291.613281 365.324219 306.605469 C 363.945312 315.753906 362.867188 324.960938 363.371094 334.910156 C 368.324219 330.089844 372.695312 325.449219 376.300781 320.125 C 380.667969 313.667969 384.050781 306.671875 387.261719 299.601562 C 393.484375 285.917969 401.324219 273.355469 412.574219 263.195312 C 424.769531 252.1875 439.007812 246.015625 455.554688 245.316406 C 463.191406 244.992188 470.875 245.351562 478.4375 243.589844 C 483.929688 242.3125 488.921875 239.820312 494.214844 237.882812 C 492.660156 240.199219 490.410156 241.628906 488.011719 242.855469 C 480.050781 246.921875 471.453125 248.183594 462.664062 248.5625 C 432.480469 249.871094 407.710938 269.527344 399.503906 298.699219 C 397.457031 305.980469 397.460938 306.003906 404.640625 304.449219 C 420.550781 300.992188 436.46875 300.9375 452.515625 303.65625 C 461.710938 305.214844 471.027344 305.019531 480.171875 302.894531 C 488.085938 301.046875 494.523438 296.613281 500.222656 290.839844 Z M 500.222656 290.839844 "/><path style=" stroke:none;fill-rule:nonzero;fill:#ffffff;fill-opacity:1;" d="M 440.136719 315.121094 C 444.414062 315.214844 448.519531 316.015625 452.449219 317.609375 C 453.773438 318.148438 454.851562 318.933594 453.144531 320.335938 C 443.394531 328.335938 432.550781 331.730469 420.0625 328.207031 C 419.445312 328.03125 418.867188 327.726562 418.265625 327.492188 C 416.625 326.847656 416.503906 326.085938 417.75 324.738281 C 423.804688 318.175781 431.3125 315.117188 440.136719 315.121094 Z M 440.136719 315.121094 "/><path style=" stroke:none;fill-rule:nonzero;fill:#ffffff;fill-opacity:1;" d="M 264.886719 315.210938 C 273.007812 315.199219 280.117188 317.710938 285.785156 323.734375 C 288.085938 326.179688 288.015625 326.519531 284.746094 327.703125 C 274.769531 331.3125 265.457031 329.664062 256.679688 324.050781 C 255.597656 323.339844 254.558594 322.566406 253.574219 321.722656 C 252.769531 321.054688 251.375 320.539062 251.550781 319.414062 C 251.765625 318.054688 253.234375 317.589844 254.441406 317.140625 C 257.808594 315.898438 261.257812 315.085938 264.886719 315.210938 Z M 264.886719 315.210938 "/><path style=" stroke:none;fill-rule:nonzero;fill:#ffffff;fill-opacity:1;" d="M 314.765625 197.183594 C 321 203.167969 324.21875 210.15625 325.007812 218.21875 C 325.425781 222.488281 325.492188 226.789062 324.074219 231.015625 C 323.304688 233.3125 322.414062 233.414062 320.757812 232.023438 C 314.171875 226.484375 311.445312 219.207031 311.675781 210.839844 C 311.800781 206.363281 312.445312 201.863281 314.765625 197.183594 Z M 314.765625 197.183594 "/><path style=" stroke:none;fill-rule:nonzero;fill:#ffffff;fill-opacity:1;" d="M 448.859375 280.398438 C 449.398438 280.398438 449.949219 280.320312 450.472656 280.410156 C 452.015625 280.671875 454.257812 279.695312 454.964844 281.242188 C 455.804688 283.089844 453.761719 284.488281 452.652344 285.847656 C 445.675781 294.394531 436.8125 297.757812 425.941406 295.261719 C 422.644531 294.507812 422.449219 294.003906 424.542969 291.351562 C 430.734375 283.5 439.023438 280.191406 448.859375 280.398438 Z M 448.859375 280.398438 "/><path style=" stroke:none;fill-rule:nonzero;fill:#ffffff;fill-opacity:1;" d="M 341.984375 165.691406 C 349.058594 170.832031 352.199219 177.859375 353.503906 185.832031 C 354.078125 189.339844 353.925781 192.949219 353.511719 196.5 C 353.175781 199.375 352.449219 199.730469 350.039062 198.054688 C 343.523438 193.53125 340.679688 186.957031 340.09375 179.300781 C 339.742188 174.777344 340.25 170.308594 341.984375 165.691406 Z M 341.984375 165.691406 "/><path style=" stroke:none;fill-rule:nonzero;fill:#ffffff;fill-opacity:1;" d="M 256.492188 280.484375 C 266.535156 280.367188 274.65625 284.058594 280.503906 292.457031 C 281.839844 294.378906 281.320312 294.910156 279.328125 295.390625 C 268.4375 298.007812 256.578125 292.90625 251.074219 283.21875 C 249.960938 281.257812 250.390625 280.449219 252.613281 280.484375 C 253.90625 280.5 255.199219 280.484375 256.492188 280.484375 Z M 256.492188 280.484375 "/><path style=" stroke:none;fill-rule:nonzero;fill:#ffffff;fill-opacity:1;" d="M 379.519531 221.921875 C 379.242188 214.125 381.953125 208.023438 386.96875 202.835938 C 388.570312 201.179688 389.652344 200.648438 390.773438 203.453125 C 394.65625 213.167969 392.550781 223.949219 385.351562 230.101562 C 382.347656 232.664062 381.5 232.449219 380.414062 228.746094 C 379.710938 226.363281 379.398438 223.917969 379.519531 221.921875 Z M 379.519531 221.921875 "/><path style=" stroke:none;fill-rule:nonzero;fill:#ffffff;fill-opacity:1;" d="M 386.140625 182.332031 C 387.277344 176.644531 390.5625 172.339844 394.980469 168.941406 C 399.898438 165.15625 405.746094 163.707031 411.84375 163.203125 C 413.105469 163.097656 414.191406 163.003906 413.488281 165.042969 C 409.894531 175.453125 397.109375 183.65625 386.140625 182.332031 Z M 386.140625 182.332031 "/><g clip-rule="nonzero" clip-path="url(#a83b635175)"><path style=" stroke:none;fill-rule:nonzero;fill:#ffffff;fill-opacity:1;" d="M 508.683594 291.574219 C 504.375 291.628906 504.28125 291.605469 505.378906 287.457031 C 508.160156 276.9375 516.96875 272.265625 525.851562 270.847656 C 526.804688 270.695312 527.28125 271.113281 527.179688 272.105469 C 526.171875 281.910156 518.445312 291.769531 508.683594 291.574219 Z M 508.683594 291.574219 "/></g><path style=" stroke:none;fill-rule:nonzero;fill:#ffffff;fill-opacity:1;" d="M 304.074219 157.230469 C 296.433594 157.203125 287.21875 150.929688 284.433594 144.113281 C 283.789062 142.539062 284.035156 141.945312 285.847656 141.566406 C 294.683594 139.722656 305.65625 144.464844 310.058594 152.207031 C 311.695312 155.085938 311.492188 155.632812 308.265625 156.609375 C 306.824219 157.050781 305.347656 157.367188 304.074219 157.230469 Z M 304.074219 157.230469 "/><path style=" stroke:none;fill-rule:nonzero;fill:#ffffff;fill-opacity:1;" d="M 488 264.511719 C 481.597656 273.953125 468.957031 277.394531 459.28125 272.328125 C 456.132812 270.679688 456.203125 270.34375 458.835938 267.917969 C 466.496094 260.859375 480.179688 261.054688 488 264.511719 Z M 488 264.511719 "/><path style=" stroke:none;fill-rule:nonzero;fill:#ffffff;fill-opacity:1;" d="M 293.40625 163.363281 C 304.71875 163.878906 313.886719 169.976562 317.191406 179.179688 C 318.492188 182.808594 318.164062 183.199219 314.257812 182.625 C 303.679688 181.074219 296.5 175.097656 292.101562 165.546875 C 291.144531 163.46875 291.324219 163.265625 293.40625 163.363281 Z M 293.40625 163.363281 "/><path style=" stroke:none;fill-rule:nonzero;fill:#ffffff;fill-opacity:1;" d="M 451.15625 177.738281 C 454.121094 188.675781 447.351562 200.28125 436.476562 203.054688 C 434.71875 203.5 434.21875 203.042969 434.078125 201.3125 C 433.292969 191.617188 441.4375 180.304688 451.15625 177.738281 Z M 451.15625 177.738281 "/><path style=" stroke:none;fill-rule:nonzero;fill:#ffffff;fill-opacity:1;" d="M 235.839844 274.617188 C 228.941406 274.367188 223.164062 271.902344 218.609375 266.800781 C 217.820312 265.917969 216.359375 264.585938 218.703125 263.957031 C 228.398438 261.359375 237.828125 260.824219 246.183594 267.90625 C 248.09375 269.527344 248.277344 270.71875 245.902344 271.84375 C 242.679688 273.371094 239.359375 274.566406 235.839844 274.617188 Z M 235.839844 274.617188 "/><g clip-rule="nonzero" clip-path="url(#4c7838cbc8)"><path style=" stroke:none;fill-rule:nonzero;fill:#ffffff;fill-opacity:1;" d="M 196.742188 292.027344 C 186.097656 291.621094 178.566406 282.28125 177.820312 272.628906 C 177.714844 271.292969 178.105469 270.769531 179.671875 270.992188 C 189.484375 272.386719 197.238281 279.789062 198.933594 289.210938 C 199.386719 291.714844 198.683594 292.378906 196.742188 292.027344 Z M 196.742188 292.027344 "/></g><path style=" stroke:none;fill-rule:nonzero;fill:#ffffff;fill-opacity:1;" d="M 414.058594 141.515625 C 415.777344 141.605469 418.464844 140.746094 419.335938 142.34375 C 420.285156 144.09375 418.378906 146.105469 417.246094 147.792969 C 412.417969 154.953125 404.539062 158.144531 396.167969 156.539062 C 393.640625 156.050781 393.269531 154.90625 394.261719 152.75 C 397.429688 145.863281 403.265625 142.921875 410.328125 141.785156 C 411.492188 141.597656 412.6875 141.605469 414.058594 141.515625 Z M 414.058594 141.515625 "/><path style=" stroke:none;fill-rule:nonzero;fill:#ffffff;fill-opacity:1;" d="M 266.488281 240.8125 C 266.625 242.625 265.382812 241.996094 264.371094 241.761719 C 258.707031 240.453125 253.996094 237.605469 250.652344 232.816406 C 247.980469 228.984375 246.242188 224.734375 245.792969 220.007812 C 245.65625 218.589844 245.839844 217.972656 247.464844 218.332031 C 256.519531 220.347656 265.949219 231.246094 266.429688 240.320312 C 266.433594 240.4375 266.453125 240.539062 266.488281 240.8125 Z M 266.488281 240.8125 "/><path style=" stroke:none;fill-rule:nonzero;fill:#ffffff;fill-opacity:1;" d="M 448.898438 225.746094 C 448.453125 235.5625 441.554688 242.925781 432.195312 243.9375 C 430.652344 244.105469 430.148438 243.699219 430.097656 242.085938 C 429.835938 233.746094 437.660156 224.253906 445.921875 222.886719 C 448.691406 222.425781 449.449219 223.523438 448.898438 225.746094 Z M 448.898438 225.746094 "/><path style=" stroke:none;fill-rule:nonzero;fill:#ffffff;fill-opacity:1;" d="M 269.558594 199.015625 C 269.746094 203.089844 269.234375 203.464844 265 201.773438 C 256.671875 198.445312 252.199219 190.542969 253.464844 181.648438 C 253.828125 179.09375 254.804688 178.691406 257.054688 179.78125 C 264.886719 183.585938 269.417969 189.527344 269.558594 199.015625 Z M 269.558594 199.015625 "/><path style=" stroke:none;fill-rule:nonzero;fill:#ffffff;fill-opacity:1;" d="M 303.746094 199.902344 C 303.804688 203 302.921875 205.835938 301.640625 208.605469 C 300.855469 210.304688 299.917969 210.46875 298.410156 209.410156 C 292.757812 205.457031 291.625 199.746094 292.179688 193.433594 C 292.417969 190.757812 293.355469 188.207031 294.226562 185.65625 C 294.84375 183.84375 295.648438 183.898438 296.957031 184.910156 C 301.878906 188.71875 303.667969 193.925781 303.746094 199.902344 Z M 303.746094 199.902344 "/><path style=" stroke:none;fill-rule:nonzero;fill:#ffffff;fill-opacity:1;" d="M 506.523438 244.835938 C 507.355469 244.835938 507.464844 244.828125 507.570312 244.835938 C 509.941406 245.039062 513.425781 244.128906 514.078125 246.738281 C 514.605469 248.824219 511.417969 250.320312 509.417969 251.480469 C 502.679688 255.382812 495.4375 256.109375 487.933594 254.320312 C 486.628906 254.011719 484.738281 253.675781 484.527344 252.304688 C 484.339844 251.066406 486.183594 250.574219 487.222656 249.871094 C 493.28125 245.75 500.238281 245.179688 506.523438 244.835938 Z M 506.523438 244.835938 "/><path style=" stroke:none;fill-rule:nonzero;fill:#ffffff;fill-opacity:1;" d="M 431.105469 272.667969 C 433.492188 272.644531 435.804688 273.050781 438.042969 273.886719 C 439.9375 274.59375 440.421875 275.371094 438.695312 276.96875 C 435.703125 279.738281 432.226562 281.730469 428.359375 282.648438 C 423.25 283.863281 418.027344 284.535156 412.703125 283.746094 C 410.523438 283.421875 410.710938 282.804688 411.851562 281.441406 C 416.875 275.445312 423.386719 272.738281 431.105469 272.667969 Z M 431.105469 272.667969 "/><path style=" stroke:none;fill-rule:nonzero;fill:#ffffff;fill-opacity:1;" d="M 462.691406 192.796875 C 462.710938 184.949219 465.238281 179.070312 471.136719 174.84375 C 472.097656 174.15625 473.105469 173.175781 473.8125 175.109375 C 476.660156 182.898438 475.140625 193.234375 466.824219 197.714844 C 463.796875 199.347656 463.53125 199.246094 463.027344 195.914062 C 462.835938 194.644531 462.75 193.355469 462.691406 192.796875 Z M 462.691406 192.796875 "/><path style=" stroke:none;fill-rule:nonzero;fill:#ffffff;fill-opacity:1;" d="M 401.46875 200.65625 C 401.46875 194.820312 403.652344 190.003906 408.078125 186.164062 C 409.636719 184.808594 410.609375 184.378906 411.367188 186.902344 C 413.523438 194.089844 414.316406 201.078125 409.054688 207.382812 C 407.886719 208.78125 406.472656 210.621094 404.664062 210.273438 C 402.972656 209.949219 402.816406 207.636719 402.199219 206.054688 C 401.515625 204.296875 401.527344 202.480469 401.46875 200.65625 Z M 401.46875 200.65625 "/><path style=" stroke:none;fill-rule:nonzero;fill:#ffffff;fill-opacity:1;" d="M 475.75 212.65625 C 476.984375 221.953125 475.863281 230.511719 468.464844 237.148438 C 467.007812 238.453125 465.089844 240.039062 463.40625 239.25 C 461.941406 238.5625 462.695312 236.113281 462.78125 234.449219 C 463.289062 224.996094 469.089844 218.621094 475.75 212.65625 Z M 475.75 212.65625 "/><path style=" stroke:none;fill-rule:nonzero;fill:#ffffff;fill-opacity:1;" d="M 229.113281 182.292969 C 229.1875 181.359375 229.101562 180.023438 229.445312 178.804688 C 229.890625 177.207031 229.617188 174.8125 231.371094 174.335938 C 232.777344 173.953125 234.175781 175.703125 235.300781 176.796875 C 241.09375 182.414062 242.46875 189.253906 240.703125 196.945312 C 240.253906 198.910156 239.21875 198.601562 237.964844 197.9375 C 231.824219 194.6875 229.054688 189.496094 229.113281 182.292969 Z M 229.113281 182.292969 "/><path style=" stroke:none;fill-rule:nonzero;fill:#ffffff;fill-opacity:1;" d="M 285.90625 283.960938 C 278.707031 283.75 272.089844 281.972656 266.359375 277.40625 C 264.84375 276.199219 264.335938 275.402344 266.527344 274.304688 C 274.398438 270.355469 287.941406 274.015625 292.6875 281.390625 C 293.667969 282.910156 292.933594 283.34375 291.699219 283.503906 C 289.777344 283.746094 287.835938 283.816406 285.90625 283.960938 Z M 285.90625 283.960938 "/><path style=" stroke:none;fill-rule:nonzero;fill:#ffffff;fill-opacity:1;" d="M 220.121094 252.113281 C 211.894531 257.425781 197.101562 255.296875 191.113281 248.277344 C 189.625 246.527344 190.5 245.90625 192.160156 245.386719 C 196.023438 244.167969 199.855469 245.207031 203.699219 245.480469 C 209.796875 245.910156 215.085938 248.300781 220.121094 252.113281 Z M 220.121094 252.113281 "/><path style=" stroke:none;fill-rule:nonzero;fill:#ffffff;fill-opacity:1;" d="M 222.425781 281.421875 C 232.53125 284.074219 242.273438 285.867188 247.753906 295.679688 C 249.078125 298.058594 247.828125 298.234375 246.195312 298.265625 C 239.609375 298.382812 234.132812 295.554688 229.242188 291.464844 C 226.25 288.957031 223.976562 285.867188 222.425781 281.421875 Z M 222.425781 281.421875 "/><path style=" stroke:none;fill-rule:nonzero;fill:#ffffff;fill-opacity:1;" d="M 481.652344 281.6875 C 479.113281 291.203125 466.789062 299.375 457.753906 297.992188 C 456.148438 297.746094 456.015625 297.289062 456.734375 295.964844 C 458.964844 291.871094 461.945312 288.570312 466.222656 286.5625 C 471.015625 284.3125 476.058594 282.882812 481.652344 281.6875 Z M 481.652344 281.6875 "/><path style=" stroke:none;fill-rule:nonzero;fill:#ffffff;fill-opacity:1;" d="M 202.257812 315.074219 C 195.550781 315 190.074219 311.359375 186.121094 305.128906 C 184.960938 303.304688 185.328125 302.40625 187.679688 302.09375 C 196.429688 300.933594 203.796875 304.453125 207.910156 311.632812 C 209.222656 313.925781 208.710938 314.628906 206.351562 314.769531 C 205.273438 314.832031 204.203125 314.929688 202.257812 315.074219 Z M 202.257812 315.074219 "/><path style=" stroke:none;fill-rule:nonzero;fill:#ffffff;fill-opacity:1;" d="M 481.648438 207.15625 C 476.6875 207.140625 472.730469 206.039062 469.296875 203.285156 C 468.492188 202.640625 467.597656 202.230469 469.003906 201.21875 C 476.359375 195.925781 485.632812 195.1875 492.859375 200.21875 C 494.652344 201.464844 494.164062 202.183594 492.742188 203.246094 C 489.25 205.863281 485.398438 207.257812 481.648438 207.15625 Z M 481.648438 207.15625 "/><path style=" stroke:none;fill-rule:nonzero;fill:#ffffff;fill-opacity:1;" d="M 236.375 202.191406 C 229.121094 208.320312 219.09375 208.757812 212.144531 203.566406 C 209.261719 201.410156 209.257812 201.074219 212.308594 199.351562 C 218.171875 196.042969 224.179688 195.902344 230.226562 198.761719 C 232.253906 199.71875 234.15625 200.941406 236.375 202.191406 Z M 236.375 202.191406 "/><path style=" stroke:none;fill-rule:nonzero;fill:#ffffff;fill-opacity:1;" d="M 500.914062 315.015625 C 499.152344 314.695312 496.671875 315.5 496.007812 313.960938 C 495.273438 312.257812 496.988281 310.410156 498.140625 308.90625 C 502.128906 303.714844 511.082031 300.863281 517.457031 302.453125 C 519.691406 303.007812 518.613281 304.085938 518.101562 304.984375 C 514.304688 311.671875 508.472656 314.910156 500.914062 315.015625 Z M 500.914062 315.015625 "/><path style=" stroke:none;fill-rule:nonzero;fill:#ffffff;fill-opacity:1;" d="M 265.496094 170.179688 C 257.945312 170.058594 250.140625 162.933594 249.359375 155.433594 C 249.261719 154.46875 248.988281 153.347656 250.640625 153.585938 C 258.640625 154.738281 266.09375 158.722656 268.261719 166.605469 C 269.207031 170.050781 269.125 170.238281 265.496094 170.179688 Z M 265.496094 170.179688 "/><path style=" stroke:none;fill-rule:nonzero;fill:#ffffff;fill-opacity:1;" d="M 213 281.902344 C 213.007812 282.007812 213.007812 282.117188 213 282.222656 C 212.785156 283.964844 213.757812 286.578125 212.164062 287.234375 C 210.265625 288.015625 208.488281 285.972656 207.03125 284.582031 C 201.464844 279.261719 200.171875 272.667969 201.445312 265.34375 C 201.875 262.886719 203.226562 263.441406 204.636719 264.394531 C 210.84375 268.59375 213.078125 274.695312 213 281.902344 Z M 213 281.902344 "/><path style=" stroke:none;fill-rule:nonzero;fill:#ffffff;fill-opacity:1;" d="M 280.394531 157.0625 C 280.375 158.683594 280.253906 160.273438 279.808594 161.855469 C 278.542969 166.34375 277.652344 166.648438 274.167969 163.671875 C 269.148438 159.375 267.777344 148.828125 271.421875 143.394531 C 272.535156 141.734375 273.402344 142.621094 274.25 143.394531 C 278.269531 147.050781 280.394531 151.585938 280.394531 157.0625 Z M 280.394531 157.0625 "/><path style=" stroke:none;fill-rule:nonzero;fill:#ffffff;fill-opacity:1;" d="M 435.453125 150.96875 C 435.546875 157.164062 433.675781 161.597656 429.234375 164.859375 C 427.78125 165.921875 426.910156 165.898438 425.964844 164.199219 C 422.46875 157.898438 425.074219 147.0625 431.085938 142.972656 C 432.40625 142.074219 433.183594 142.175781 433.777344 143.640625 C 434.832031 146.253906 435.542969 148.933594 435.453125 150.96875 Z M 435.453125 150.96875 "/><path style=" stroke:none;fill-rule:nonzero;fill:#ffffff;fill-opacity:1;" d="M 492.285156 280.492188 C 492.164062 273.878906 494.777344 268.609375 500.117188 264.683594 C 501.65625 263.558594 502.550781 263.519531 503.125 265.738281 C 504.984375 272.90625 502.492188 281.652344 497.210938 285.773438 C 496.109375 286.636719 494.800781 287.863281 493.53125 287.40625 C 492.160156 286.910156 492.402344 285.070312 492.300781 283.726562 C 492.21875 282.652344 492.285156 281.570312 492.285156 280.492188 Z M 492.285156 280.492188 "/><path style=" stroke:none;fill-rule:nonzero;fill:#ffffff;fill-opacity:1;" d="M 438.839844 170.160156 C 436.472656 170.59375 436.121094 169.183594 436.660156 167.117188 C 438.652344 159.542969 444.386719 156.136719 451.324219 154.226562 C 452.4375 153.921875 453.953125 152.832031 454.902344 153.996094 C 455.734375 155.007812 454.902344 156.507812 454.554688 157.691406 C 452.453125 164.90625 445.953125 170.089844 438.839844 170.160156 Z M 438.839844 170.160156 "/><path style=" stroke:none;fill-rule:nonzero;fill:#ffffff;fill-opacity:1;" d="M 376.953125 291.859375 C 376.75 283.730469 381.058594 278.582031 386.078125 273.820312 C 387.132812 272.820312 387.820312 273.097656 387.796875 274.597656 C 387.671875 283.214844 386.726562 291.585938 380.859375 298.554688 C 379.644531 300 378.925781 300.367188 378.097656 298.179688 C 377.238281 295.902344 376.894531 293.617188 376.953125 291.859375 Z M 376.953125 291.859375 "/><path style=" stroke:none;fill-rule:nonzero;fill:#ffffff;fill-opacity:1;" d="M 317.96875 272.851562 C 326.164062 278.175781 329.621094 288.59375 326.625 297.371094 C 325.855469 299.632812 325.027344 299.957031 323.445312 298.113281 C 321.222656 295.535156 319.742188 292.582031 319.015625 289.253906 C 317.789062 283.84375 317.441406 278.375 317.96875 272.851562 Z M 317.96875 272.851562 "/><path style=" stroke:none;fill-rule:nonzero;fill:#ffffff;fill-opacity:1;" d="M 247.199219 330.664062 C 253.121094 330.976562 258.625 332.441406 262.378906 337.648438 C 264.371094 340.414062 264.164062 340.941406 260.914062 341.539062 C 254.617188 342.695312 249.179688 340.945312 244.683594 336.386719 C 243.40625 335.09375 241.539062 333.582031 242.359375 331.777344 C 243.101562 330.152344 245.441406 330.929688 247.199219 330.664062 Z M 247.199219 330.664062 "/><path style=" stroke:none;fill-rule:nonzero;fill:#ffffff;fill-opacity:1;" d="M 360.847656 182.644531 C 360.710938 177.910156 362.300781 173.785156 365.351562 170.230469 C 366.179688 169.269531 367.601562 168.035156 368.15625 170.269531 C 369.992188 177.671875 371.089844 185.054688 366.101562 191.882812 C 364.707031 193.792969 363.976562 193.804688 362.917969 191.664062 C 361.5 188.796875 360.90625 185.796875 360.847656 182.644531 Z M 360.847656 182.644531 "/><path style=" stroke:none;fill-rule:nonzero;fill:#ffffff;fill-opacity:1;" d="M 354.234375 160.238281 C 354.792969 152.195312 358.546875 146.414062 365.136719 142.390625 C 366.21875 141.730469 367.277344 141.113281 367.722656 143.085938 C 369.144531 149.429688 363.371094 159.773438 357.265625 161.835938 C 355.441406 162.449219 353.726562 163.0625 354.234375 160.238281 Z M 354.234375 160.238281 "/><path style=" stroke:none;fill-rule:nonzero;fill:#ffffff;fill-opacity:1;" d="M 470.945312 315.617188 C 480.53125 313.164062 489.488281 312.917969 497.523438 319.546875 C 491.238281 324.878906 476.664062 322.734375 470.945312 315.617188 Z M 470.945312 315.617188 "/><path style=" stroke:none;fill-rule:nonzero;fill:#ffffff;fill-opacity:1;" d="M 220.75 212.722656 C 227.4375 219.15625 232.320312 225.464844 231.242188 234.785156 C 230.929688 237.480469 229.964844 237.199219 228.210938 236.273438 C 225.066406 234.609375 223.21875 231.90625 222.027344 228.679688 C 220.199219 223.71875 220.453125 218.613281 220.75 212.722656 Z M 220.75 212.722656 "/><path style=" stroke:none;fill-rule:nonzero;fill:#ffffff;fill-opacity:1;" d="M 406.808594 250.230469 C 406.957031 256.425781 405.570312 262.175781 401.894531 267.285156 C 400.726562 268.90625 400.050781 268.964844 399.097656 267.050781 C 395.710938 260.25 397.929688 250.394531 404.039062 245.675781 C 404.699219 245.167969 405.390625 244.261719 406.242188 244.652344 C 407.132812 245.058594 406.714844 246.191406 406.785156 247 C 406.878906 248.070312 406.808594 249.152344 406.808594 250.230469 Z M 406.808594 250.230469 "/><path style=" stroke:none;fill-rule:nonzero;fill:#ffffff;fill-opacity:1;" d="M 233.515625 315.5625 C 226.867188 322.617188 214.226562 324.5 207.007812 319.628906 C 214.972656 312.722656 223.945312 313.410156 233.515625 315.5625 Z M 233.515625 315.5625 "/><path style=" stroke:none;fill-rule:nonzero;fill:#ffffff;fill-opacity:1;" d="M 498.101562 358.175781 C 493.75 358.054688 490.132812 357.316406 487.007812 354.886719 C 485.359375 353.601562 485.253906 352.632812 487.261719 351.609375 C 493.921875 348.207031 500.398438 348.191406 506.800781 352.3125 C 508.792969 353.597656 508.636719 354.496094 506.777344 355.726562 C 503.960938 357.589844 500.824219 358.035156 498.101562 358.175781 Z M 498.101562 358.175781 "/><path style=" stroke:none;fill-rule:nonzero;fill:#ffffff;fill-opacity:1;" d="M 446.082031 341.648438 C 444.347656 341.378906 441.488281 342.105469 440.863281 340.429688 C 440.113281 338.414062 442.394531 336.589844 444 335.253906 C 448.738281 331.3125 454.390625 330.378906 460.339844 330.910156 C 463.203125 331.164062 461.972656 332.871094 461.117188 334.035156 C 457.441406 339.027344 452.464844 341.582031 446.082031 341.648438 Z M 446.082031 341.648438 "/><path style=" stroke:none;fill-rule:nonzero;fill:#ffffff;fill-opacity:1;" d="M 365.21875 118.019531 C 365.484375 126.746094 364.949219 134.597656 358.015625 140.457031 C 356.238281 141.960938 355.296875 142.207031 354.835938 139.347656 C 353.542969 131.335938 356.929688 123.875 365.21875 118.019531 Z M 365.21875 118.019531 "/><path style=" stroke:none;fill-rule:nonzero;fill:#ffffff;fill-opacity:1;" d="M 306.976562 259.652344 C 307.054688 261.921875 306.597656 264.445312 305.515625 266.847656 C 304.695312 268.671875 303.730469 268.730469 302.5 267.128906 C 299.480469 263.203125 298.535156 258.578125 298.046875 253.835938 C 297.8125 251.59375 297.96875 249.3125 297.945312 247.046875 C 297.914062 244.601562 298.910156 244.570312 300.675781 245.769531 C 304.421875 248.308594 306.992188 253.71875 306.976562 259.652344 Z M 306.976562 259.652344 "/><path style=" stroke:none;fill-rule:nonzero;fill:#ffffff;fill-opacity:1;" d="M 206.683594 358.136719 C 202.773438 358.039062 199.523438 357.527344 196.703125 355.460938 C 195.332031 354.453125 195.25 353.640625 196.671875 352.476562 C 201.699219 348.359375 211.851562 348.082031 217.050781 351.90625 C 218.609375 353.046875 217.964844 353.800781 216.957031 354.632812 C 213.820312 357.222656 210.125 358.117188 206.683594 358.136719 Z M 206.683594 358.136719 "/><path style=" stroke:none;fill-rule:nonzero;fill:#ffffff;fill-opacity:1;" d="M 474.40625 341.4375 C 473.089844 341.03125 471.226562 342 470.582031 340.691406 C 469.972656 339.457031 471.3125 338.121094 472.09375 336.996094 C 474.289062 333.839844 477.507812 332.160156 481.09375 331.171875 C 483.777344 330.433594 486.519531 329.90625 489.246094 329.347656 C 490.027344 329.1875 491.066406 328.613281 491.574219 329.515625 C 492.007812 330.277344 491.390625 331.175781 490.9375 331.90625 C 487.128906 338.050781 481.515625 341.042969 474.40625 341.4375 Z M 474.40625 341.4375 "/><path style=" stroke:none;fill-rule:nonzero;fill:#ffffff;fill-opacity:1;" d="M 244.964844 252.058594 C 249.976562 252.308594 254.777344 253.472656 258.851562 256.886719 C 260.320312 258.113281 260.378906 258.894531 258.675781 259.960938 C 253.296875 263.324219 240.828125 260.089844 237.859375 254.496094 C 237.296875 253.441406 237.152344 252.699219 238.730469 252.597656 C 240.765625 252.472656 242.796875 252.25 244.964844 252.058594 Z M 244.964844 252.058594 "/><path style=" stroke:none;fill-rule:nonzero;fill:#ffffff;fill-opacity:1;" d="M 233.886719 340.492188 C 224.984375 342.726562 215.550781 337.789062 212.570312 329.328125 C 224.230469 330.035156 231.949219 333.183594 233.886719 340.492188 Z M 233.886719 340.492188 "/><path style=" stroke:none;fill-rule:nonzero;fill:#ffffff;fill-opacity:1;" d="M 452.414062 261.121094 C 450.128906 261.027344 445.953125 261.347656 445.476562 258.84375 C 444.957031 256.128906 448.894531 254.710938 451.53125 253.652344 C 456.269531 251.75 461.253906 252.207031 466.171875 252.648438 C 468.722656 252.878906 467.417969 254.289062 466.707031 255.28125 C 464.273438 258.667969 458.886719 260.910156 452.414062 261.121094 Z M 452.414062 261.121094 "/><path style=" stroke:none;fill-rule:nonzero;fill:#ffffff;fill-opacity:1;" d="M 487.648438 231.785156 C 488.074219 224.285156 491.976562 219.417969 498.226562 216.140625 C 499.222656 215.617188 499.90625 215.28125 500.320312 216.800781 C 501.925781 222.691406 496.417969 232.160156 490.441406 233.875 C 488.128906 234.539062 487.082031 234.136719 487.648438 231.785156 Z M 487.648438 231.785156 "/><path style=" stroke:none;fill-rule:nonzero;fill:#ffffff;fill-opacity:1;" d="M 243.378906 358.847656 C 243.65625 358.847656 244.316406 358.765625 244.941406 358.867188 C 246.058594 359.046875 247.699219 358.28125 248.183594 359.382812 C 248.710938 360.570312 247.488281 361.757812 246.589844 362.636719 C 241.566406 367.582031 235.597656 369.445312 228.652344 367.910156 C 226.542969 367.445312 226.402344 366.515625 227.796875 364.914062 C 231.839844 360.25 237.023438 358.558594 243.378906 358.847656 Z M 243.378906 358.847656 "/><path style=" stroke:none;fill-rule:nonzero;fill:#ffffff;fill-opacity:1;" d="M 373.695312 148.539062 C 373.578125 144.738281 374.363281 141.453125 376.375 138.519531 C 377.378906 137.054688 378.296875 136.664062 379.519531 138.449219 C 383.488281 144.265625 383.011719 152.796875 378.390625 157.867188 C 377.25 159.121094 376.617188 159.375 375.777344 157.554688 C 374.410156 154.578125 373.460938 151.5625 373.695312 148.539062 Z M 373.695312 148.539062 "/><path style=" stroke:none;fill-rule:nonzero;fill:#ffffff;fill-opacity:1;" d="M 216.140625 230.898438 C 216.195312 234.535156 215.636719 234.882812 212.277344 233.300781 C 206.976562 230.804688 202.71875 222.910156 203.542969 217.207031 C 203.742188 215.835938 204.167969 215.359375 205.636719 215.882812 C 211.28125 217.90625 216.046875 224.640625 216.140625 230.898438 Z M 216.140625 230.898438 "/><path style=" stroke:none;fill-rule:nonzero;fill:#ffffff;fill-opacity:1;" d="M 339.769531 141.191406 C 332.839844 137.941406 328.765625 128.601562 331.164062 121.59375 C 331.664062 120.132812 332.425781 120.082031 333.566406 120.808594 C 339.558594 124.601562 342.632812 134.679688 339.769531 141.191406 Z M 339.769531 141.191406 "/><path style=" stroke:none;fill-rule:nonzero;fill:#ffffff;fill-opacity:1;" d="M 348.917969 158.429688 C 345.476562 155.605469 343.605469 152.289062 343.328125 148.222656 C 343.066406 144.351562 342.832031 140.457031 343.707031 136.617188 C 343.894531 135.804688 343.925781 134.714844 344.902344 134.519531 C 345.71875 134.355469 346.164062 135.253906 346.578125 135.855469 C 351.390625 142.820312 352.78125 150.160156 348.917969 158.429688 Z M 348.917969 158.429688 "/><path style=" stroke:none;fill-rule:nonzero;fill:#ffffff;fill-opacity:1;" d="M 461.742188 358.878906 C 467.75 358.523438 472.304688 360.554688 476.152344 364.433594 C 478.109375 366.40625 477.53125 367.320312 475.046875 368.003906 C 469.253906 369.601562 460.871094 366.75 457.753906 361.910156 C 457.265625 361.148438 456.242188 360.347656 456.910156 359.339844 C 457.421875 358.570312 458.496094 358.957031 459.320312 358.894531 C 460.285156 358.820312 461.261719 358.878906 461.742188 358.878906 Z M 461.742188 358.878906 "/><path style=" stroke:none;fill-rule:nonzero;fill:#ffffff;fill-opacity:1;" d="M 333.59375 168.320312 C 327.785156 162.042969 327.710938 152.6875 333.039062 146.644531 C 334.503906 144.984375 335.199219 145.511719 335.957031 147.160156 C 338.347656 152.332031 337.148438 157.476562 335.789062 162.582031 C 335.296875 164.421875 334.433594 166.160156 333.59375 168.320312 Z M 333.59375 168.320312 "/><path style=" stroke:none;fill-rule:nonzero;fill:#ffffff;fill-opacity:1;" d="M 193.191406 319.542969 C 198.628906 320.726562 203.425781 322.128906 207.132812 325.777344 C 209.152344 327.769531 211.410156 331.226562 210.09375 333.011719 C 208.722656 334.863281 204.878906 333.527344 202.386719 332.195312 C 197.433594 329.554688 194.242188 325.574219 193.191406 319.542969 Z M 193.191406 319.542969 "/><path style=" stroke:none;fill-rule:nonzero;fill:#ffffff;fill-opacity:1;" d="M 287.328125 351.71875 C 284.75 360.132812 276.667969 363.859375 268.703125 362.570312 C 267.109375 362.3125 266.757812 361.546875 267.625 360.148438 C 269.410156 357.265625 272.085938 355.515625 275.140625 354.335938 C 276.929688 353.644531 278.816406 353.160156 280.699219 352.761719 C 282.78125 352.320312 284.90625 352.089844 287.328125 351.71875 Z M 287.328125 351.71875 "/><path style=" stroke:none;fill-rule:nonzero;fill:#ffffff;fill-opacity:1;" d="M 510.113281 319.394531 C 511.105469 326.8125 502.660156 334.90625 495.652344 333.605469 C 494.207031 333.335938 494.1875 332.601562 494.433594 331.59375 C 495.238281 328.347656 496.917969 325.703125 499.792969 323.863281 C 502.992188 321.816406 506.65625 320.941406 510.113281 319.394531 Z M 510.113281 319.394531 "/><path style=" stroke:none;fill-rule:nonzero;fill:#ffffff;fill-opacity:1;" d="M 288.042969 241.09375 C 287.929688 244.203125 287.492188 247.042969 286.230469 249.742188 C 285.273438 251.777344 284.347656 251.679688 282.96875 250.097656 C 279.464844 246.074219 279.332031 241.535156 280.703125 236.71875 C 281.113281 235.273438 281.53125 233.820312 282.039062 232.402344 C 282.300781 231.660156 282.039062 230.453125 283.242188 230.386719 C 284.175781 230.335938 284.765625 231.148438 285.296875 231.816406 C 287.523438 234.582031 287.894531 237.894531 288.042969 241.09375 Z M 288.042969 241.09375 "/><path style=" stroke:none;fill-rule:nonzero;fill:#ffffff;fill-opacity:1;" d="M 432.730469 362.761719 C 426.515625 362.523438 421.734375 359.707031 418.515625 354.277344 C 418.144531 353.648438 417.527344 352.910156 417.917969 352.1875 C 418.359375 351.371094 419.289062 351.816406 419.957031 351.925781 C 424.625 352.703125 429.316406 353.449219 433.339844 356.230469 C 433.875 356.589844 434.382812 356.988281 434.859375 357.421875 C 436.117188 358.601562 438 360.074219 437.46875 361.5625 C 436.894531 363.191406 434.496094 362.621094 432.730469 362.761719 Z M 432.730469 362.761719 "/><path style=" stroke:none;fill-rule:nonzero;fill:#ffffff;fill-opacity:1;" d="M 416.488281 242.203125 C 416.457031 237.964844 417.140625 234.320312 419.644531 231.226562 C 420.121094 230.636719 420.699219 229.945312 421.472656 230.054688 C 422.460938 230.195312 422.191406 231.21875 422.34375 231.90625 C 423.320312 236.28125 425.089844 240.574219 423.671875 245.191406 C 422.914062 247.679688 422.011719 251.09375 419.496094 251.035156 C 417.550781 250.988281 417.105469 247.363281 416.703125 245.039062 C 416.523438 243.984375 416.539062 242.894531 416.488281 242.203125 Z M 416.488281 242.203125 "/><path style=" stroke:none;fill-rule:nonzero;fill:#ffffff;fill-opacity:1;" d="M 394.429688 132.277344 C 394.417969 137.007812 393.652344 141.453125 389.75 144.761719 C 388.621094 145.71875 388.085938 145.707031 387.445312 144.292969 C 385.230469 139.40625 386.203125 131.960938 389.683594 128.214844 C 390.628906 127.195312 391.691406 125.863281 393.179688 126.351562 C 394.59375 126.8125 394.308594 128.46875 394.414062 129.703125 C 394.488281 130.554688 394.429688 131.417969 394.429688 132.277344 Z M 394.429688 132.277344 "/><path style=" stroke:none;fill-rule:nonzero;fill:#ffffff;fill-opacity:1;" d="M 317.921875 138.714844 C 317.828125 139.328125 317.710938 140.503906 317.464844 141.648438 C 317.207031 142.847656 317.519531 144.671875 316.152344 144.953125 C 314.949219 145.203125 314.054688 143.648438 313.199219 142.726562 C 308.960938 138.136719 309.398438 132.453125 309.792969 126.878906 C 309.921875 125.113281 311.304688 125.789062 312.179688 126.441406 C 316.089844 129.34375 317.746094 133.378906 317.921875 138.714844 Z M 317.921875 138.714844 "/><path style=" stroke:none;fill-rule:nonzero;fill:#ffffff;fill-opacity:1;" d="M 327.066406 144.25 C 327.214844 147.148438 326.40625 149.667969 324.8125 151.929688 C 323.941406 153.167969 323.125 153.644531 321.972656 151.988281 C 318.964844 147.683594 319.21875 140.59375 322.503906 136.558594 C 323.625 135.179688 324.246094 135.742188 324.871094 136.757812 C 326.300781 139.078125 327.335938 141.539062 327.066406 144.25 Z M 327.066406 144.25 "/><path style=" stroke:none;fill-rule:nonzero;fill:#ffffff;fill-opacity:1;" d="M 192.738281 221.023438 C 195.1875 221.136719 196.203125 222.617188 196.492188 224.722656 C 196.65625 225.941406 195.773438 226.195312 194.847656 226.023438 C 192.75 225.636719 191.386719 224.34375 191.058594 222.246094 C 190.859375 220.976562 192.035156 221.140625 192.738281 221.023438 Z M 192.738281 221.023438 "/><path style=" stroke:none;fill-rule:nonzero;fill:#ffffff;fill-opacity:1;" d="M 509.699219 225.832031 C 507.792969 226.082031 507.140625 225.910156 507.1875 224.664062 C 507.28125 222.390625 508.429688 221.144531 510.644531 220.863281 C 511.726562 220.722656 512.664062 221.035156 512.539062 222.332031 C 512.328125 224.554688 510.863281 225.621094 509.699219 225.832031 Z M 509.699219 225.832031 "/></g></svg>